# xmcd CD database file
#
# Track frame offsets:
#	150
#	14582
#	29749
#	45943
#	60072
#	74410
#	89030
#	104125
#	118050
#	132070
#	146610
#	160467
#	174196
#	187947
#	202876
#	217188
#
# Disc length: 3145 seconds
#
# Revision: 0
# Processed by: cddbd v1.5.1PL2 Copyright (c) Steve Scherf et al.
# Submitted via: CDex 1.51
#
DISCID=e80c4710
DTITLE=Alpentrio Tirol - In den Bergen von Tirol
DYEAR=2003
DGENRE=Volkstümliche Musik
TTITLE0=Hawaii ist kein Tirolerland
TTITLE1=Als unsere Herzen noch gemeinsam schlugen
TTITLE2=Gib den Träumen ein orgenrot
TTITLE3=In den Bergen von Tirol
TTITLE4=Lei Lo La
TTITLE5=Ich werd Tirol vermissen
TTITLE6=Vergiss mich nicht
TTITLE7=Weil wir Hochleger sind
TTITLE8=Mein Herz hat noch Platz für dich
TTITLE9=Ein Lächeln zerbricht jeden Stein
TTITLE10=Ich sing ganz leise Only You
TTITLE11=Tirol - Tirol - Tirolissiomo
TTITLE12=Der Tag wird kommen
TTITLE13=Ave Maria no morro
TTITLE14=Es war einmal ein Edelweiß
TTITLE15=Jubiläumsmedley
EXTD=YEAR: 2003
EXTT0=
EXTT1=
EXTT2=
EXTT3=
EXTT4=
EXTT5=
EXTT6=
EXTT7=
EXTT8=
EXTT9=
EXTT10=
EXTT11=
EXTT12=
EXTT13=
EXTT14=
EXTT15=
PLAYORDER=
